<?xml version="1.0" standalone="no"?>
<!DOCTYPE svg PUBLIC "-//W3C//DTD SVG 20010904//EN"
 "http://www.w3.org/TR/2001/REC-SVG-20010904/DTD/svg10.dtd">
<svg version="1.0" xmlns="http://www.w3.org/2000/svg"
 width="700.000000pt" height="700.000000pt" viewBox="0 0 700.000000 700.000000"
 preserveAspectRatio="xMidYMid meet">
<metadata>
Created by potrace 1.14, written by Peter Selinger 2001-2017
</metadata>
<g transform="translate(0.000000,700.000000) scale(0.100000,-0.100000)"
fill="#000000" stroke="none">
<path d="M1591 6725 c-807 -115 -1432 -726 -1568 -1531 -27 -160 -24 -497 6
-692 41 -273 109 -489 231 -737 160 -327 345 -577 685 -924 201 -205 337 -331
820 -756 468 -413 653 -585 915 -851 298 -303 550 -597 740 -863 39 -55 75
-101 79 -101 4 0 30 33 57 72 216 319 491 646 828 987 256 260 428 420 913
852 437 389 778 717 956 919 420 477 645 928 723 1450 25 165 25 497 1 644
-98 581 -450 1067 -969 1340 -417 219 -928 266 -1328 121 -448 -163 -881 -562
-1135 -1048 -22 -42 -42 -77 -45 -77 -3 0 -25 39 -50 87 -107 206 -269 420
-452 599 -263 257 -542 416 -858 490 -136 32 -392 41 -549 19z m-122 -1688
c27 -18 114 -143 356 -516 281 -432 321 -490 332 -474 7 10 155 232 330 493
328 490 346 512 420 526 77 14 171 -46 192 -123 15 -53 15 -1698 0 -1757 -21
-86 -88 -130 -185 -124 -68 4 -101 21 -138 72 -21 27 -21 41 -26 639 l-5 612
-229 -350 c-125 -193 -242 -365 -260 -384 -74 -79 -181 -79 -252 1 -12 12
-124 186 -250 386 l-229 363 -5 -613 c-5 -596 -6 -614 -26 -648 -30 -52 -78
-80 -136 -80 -68 0 -114 24 -143 75 l-25 42 0 882 c0 950 -2 908 52 958 61 57
157 66 227 20z m2181 11 c18 -13 41 -34 52 -48 10 -14 113 -313 228 -665 116
-352 213 -647 216 -655 3 -8 92 194 198 448 107 256 204 474 217 489 72 78
207 68 266 -20 11 -18 99 -228 193 -467 95 -239 175 -438 179 -442 3 -4 102
284 219 640 117 356 221 658 231 671 37 52 67 66 146 66 67 0 77 -3 112 -31
48 -39 73 -87 73 -143 0 -31 -82 -286 -286 -885 -157 -463 -293 -854 -303
-871 -24 -41 -86 -75 -139 -75 -49 0 -111 28 -139 64 -11 13 -111 232 -222
487 -112 255 -207 467 -210 472 -4 4 -101 -204 -215 -463 -114 -258 -217 -481
-228 -495 -29 -37 -90 -65 -140 -65 -53 0 -116 34 -139 75 -9 17 -146 410
-304 875 -261 770 -286 850 -283 898 5 60 41 113 98 143 50 27 137 26 180 -3z"/>
</g>
</svg>
